<svg aria-hidden="true" style="width:0;height:0;position:absolute;overflow:hidden" xmlns="http://www.w3.org/2000/svg"><defs><symbol id="close" viewBox="0 0 32 32"><path fill="#033d0a" style="fill:var(--color1,#033d0a)" d="M2.067 29.005a2.924 2.924 0 0 1 0-4.135L24.87 2.067a2.924 2.924 0 1 1 4.135 4.135L6.202 29.005a2.924 2.924 0 0 1-4.135 0z"/><path fill="#033d0a" style="fill:var(--color1,#033d0a)" d="M2.067 2.067a2.924 2.924 0 0 1 4.135 0L29.005 24.87a2.924 2.924 0 1 1-4.135 4.135L2.067 6.202a2.924 2.924 0 0 1 0-4.135z"/></symbol><symbol id="sign" viewBox="0 0 29 32"><path fill="#00600c" style="fill:var(--color2,#00600c)" d="M19.2 16c0 5.302-4.298 9.6-9.6 9.6S0 21.302 0 16s4.298-9.6 9.6-9.6 9.6 4.298 9.6 9.6z"/><path fill="none" stroke="#fff" style="stroke:var(--color3,#fff)" stroke-linecap="round" stroke-width="1.8" d="M6.4 15.494s.8 3.578 2.4 5.152 4-9.446 4-9.446"/></symbol><symbol id="Logo" viewBox="0 0 74 32"><path fill="#002805" style="fill:var(--color4,#002805)" d="M20 32h-8C5.372 32 0 26.628 0 20v-8C0 5.372 5.372 0 12 0h8c6.628 0 12 5.372 12 12v8c0 6.628-5.372 12-12 12z"/><path fill="#f9b229" style="fill:var(--color5,#f9b229)" d="M16 24.64 4.8 12.8l22.4-1.6L16 24.64z"/><path fill="#013507" style="fill:var(--color6,#013507)" d="M46.06 22.4h-7.844V11.197h2.242v8.961h5.602V22.4zm8.813-4.258c0 .625-.112 1.208-.336 1.75a4.416 4.416 0 0 1-.914 1.398 4.345 4.345 0 0 1-1.359.93 4.13 4.13 0 0 1-1.664.336 4.166 4.166 0 0 1-1.664-.336 4.45 4.45 0 0 1-1.359-.93 4.439 4.439 0 0 1-.914-1.398 4.535 4.535 0 0 1-.336-1.75c0-.635.112-1.224.336-1.766s.529-1.008.914-1.398a4.304 4.304 0 0 1 1.359-.93 4.169 4.169 0 0 1 1.664-.336c.594 0 1.148.107 1.664.32.521.208.974.508 1.359.898.385.385.69.852.914 1.398.224.542.336 1.146.336 1.813zm-2.149 0c0-.344-.057-.654-.172-.93a2.108 2.108 0 0 0-.453-.719 1.896 1.896 0 0 0-.68-.461c-.255-.109-.529-.164-.82-.164s-.568.055-.828.164a1.919 1.919 0 0 0-.672.461 2.17 2.17 0 0 0-.445.719 2.514 2.514 0 0 0-.164.93c0 .323.055.622.164.898s.258.516.445.719c.193.203.417.365.672.484.26.115.536.172.828.172s.565-.055.82-.164a2.043 2.043 0 0 0 1.133-1.18c.115-.281.172-.591.172-.93zm9.282 0c0-.292-.057-.573-.172-.844a2.311 2.311 0 0 0-1.133-1.235c-.255-.13-.529-.195-.82-.195s-.568.049-.828.148a1.937 1.937 0 0 0-.672.437 2.078 2.078 0 0 0-.445.719 2.666 2.666 0 0 0-.164.969c0 .349.055.664.164.945a2.2 2.2 0 0 0 .445.711c.193.198.417.352.672.461.26.104.536.156.828.156s.565-.062.82-.188c.26-.13.487-.299.68-.508a2.43 2.43 0 0 0 .453-.727c.115-.276.172-.56.172-.852zm2.148 3.203c0 .588-.112 1.141-.336 1.656s-.531.966-.922 1.352c-.385.385-.839.69-1.359.914a4.113 4.113 0 0 1-1.656.336l-1.07-.016v-2.133l1.055.016c.333 0 .617-.044.852-.133.234-.083.432-.201.594-.352.161-.146.289-.315.383-.508.099-.193.177-.396.234-.609a.98.98 0 0 1-.359.336 2.508 2.508 0 0 1-.523.203 3.094 3.094 0 0 1-.594.117 5.55 5.55 0 0 1-.57.031 4.54 4.54 0 0 1-1.664-.305 4.11 4.11 0 0 1-1.359-.867c-.385-.38-.69-.844-.914-1.391s-.336-1.164-.336-1.852c0-.63.112-1.216.336-1.758s.529-1.01.914-1.406a4.304 4.304 0 0 1 1.359-.93 4.169 4.169 0 0 1 1.664-.336c.271 0 .539.034.805.102s.523.161.773.281c.25.12.487.26.711.422.229.161.443.336.641.523l.828-.992h.516v7.297zm9.719-3.203c0 .625-.112 1.208-.336 1.75a4.416 4.416 0 0 1-.914 1.398 4.333 4.333 0 0 1-1.359.93 4.13 4.13 0 0 1-1.664.336 4.166 4.166 0 0 1-1.664-.336 4.45 4.45 0 0 1-1.359-.93 4.439 4.439 0 0 1-.914-1.398 4.535 4.535 0 0 1-.336-1.75c0-.635.112-1.224.336-1.766s.529-1.008.914-1.398c.39-.396.844-.706 1.359-.93a4.166 4.166 0 0 1 1.664-.336c.594 0 1.148.107 1.664.32.521.208.974.508 1.359.898.385.385.69.852.914 1.398.224.542.336 1.146.336 1.813zm-2.149 0c0-.344-.057-.654-.172-.93a2.108 2.108 0 0 0-.453-.719 1.896 1.896 0 0 0-.68-.461c-.255-.109-.529-.164-.82-.164s-.568.055-.828.164a1.919 1.919 0 0 0-.672.461 2.17 2.17 0 0 0-.445.719 2.514 2.514 0 0 0-.164.93c0 .323.055.622.164.898s.258.516.445.719c.193.203.417.365.672.484.26.115.536.172.828.172s.565-.055.82-.164a2.043 2.043 0 0 0 1.133-1.18c.115-.281.172-.591.172-.93z"/></symbol><symbol id="logo-m" viewBox="0 0 32 32"><path fill="#002805" style="fill:var(--color4,#002805)" d="M20 32h-8C5.372 32 0 26.628 0 20v-8C0 5.372 5.372 0 12 0h8c6.628 0 12 5.372 12 12v8c0 6.628-5.372 12-12 12z"/><path fill="#f9b229" style="fill:var(--color5,#f9b229)" d="M16 24.64 4.8 12.8l22.4-1.6L16 24.64z"/></symbol><symbol id="swiper-icon-right" viewBox="0 0 48 48"><path fill="none" stroke="#00600c" style="stroke:var(--color2,#00600c)" stroke-width="1.333" d="M.667 16C.667 7.532 7.532.667 16 .667S31.333 7.532 31.333 16 24.468 31.333 16 31.333.667 24.468.667 16z"/><path fill="none" stroke="#00600c" style="stroke:var(--color2,#00600c)" stroke-linejoin="round" stroke-linecap="round" stroke-width="1.333" d="M14 10.667 19.333 16 14 21.333"/></symbol><symbol id="swiper-icon-left" viewBox="0 0 48 48"><path fill="none" stroke="#00600c" style="stroke:var(--color2,#00600c)" stroke-width="1.333" d="M31.333 16C31.333 7.532 24.468.667 16 .667S.667 7.532.667 16 7.532 31.333 16 31.333 31.333 24.468 31.333 16z"/><path fill="none" stroke="#00600c" style="stroke:var(--color2,#00600c)" stroke-linejoin="round" stroke-linecap="round" stroke-width="1.333" d="M18 10.667 12.667 16 18 21.333"/></symbol><symbol id="bg_menu" viewBox="0 0 44 32"><path fill="#033d0a" style="fill:var(--color1,#033d0a)" d="M0 28.3a3.41 3.41 0 0 1 3.411-3.411h37.623a3.41 3.41 0 1 1 0 6.822H3.411A3.41 3.41 0 0 1 0 28.3zM3.411 0h37.623a3.41 3.41 0 1 1 0 6.822H3.411a3.41 3.41 0 1 1 0-6.822zM0 15.855a3.41 3.41 0 0 1 3.411-3.411h37.623a3.41 3.41 0 1 1 0 6.822H3.411A3.41 3.41 0 0 1 0 15.855z"/></symbol></defs></svg>