<svg aria-hidden="true" style="position: absolute; width: 0; height: 0; overflow: hidden;" version="1.1" xmlns="http://www.w3.org/2000/svg" xmlns:xlink="http://www.w3.org/1999/xlink">
<defs>
<symbol id="close" viewBox="0 0 30 32">
<path d="M16.219 14.826l4.928-4.924c0.166-0.194 0.253-0.443 0.243-0.698s-0.116-0.497-0.296-0.677c-0.181-0.18-0.423-0.286-0.678-0.296s-0.505 0.077-0.699 0.243l-4.928 4.873-4.958-4.954c-0.194-0.166-0.443-0.253-0.699-0.243s-0.497 0.116-0.678 0.296c-0.181 0.18-0.286 0.422-0.296 0.677s0.077 0.504 0.243 0.698l4.948 5.005-4.846 4.782c-0.106 0.091-0.192 0.203-0.253 0.328s-0.095 0.263-0.1 0.402 0.018 0.279 0.069 0.409c0.051 0.13 0.128 0.248 0.227 0.347s0.217 0.176 0.347 0.227c0.13 0.051 0.269 0.074 0.409 0.069s0.277-0.040 0.402-0.1c0.126-0.061 0.238-0.147 0.329-0.253l4.836-4.833 4.806 4.802c0.194 0.166 0.443 0.253 0.699 0.243s0.497-0.116 0.678-0.296c0.181-0.18 0.286-0.422 0.296-0.677s-0.077-0.504-0.243-0.698l-4.786-4.751z"></path>
</symbol>
<symbol id="sign" viewBox="0 0 29 32">
<path fill="#00600c" style="fill: var(--color1, #00600c)" d="M19.2 16c0 5.302-4.298 9.6-9.6 9.6s-9.6-4.298-9.6-9.6c0-5.302 4.298-9.6 9.6-9.6s9.6 4.298 9.6 9.6z"></path>
<path fill="none" stroke="#fff" style="stroke: var(--color2, #fff)" stroke-linejoin="miter" stroke-linecap="round" stroke-miterlimit="4" stroke-width="1.8" d="M6.4 15.494c0 0 0.8 3.578 2.4 5.152s4-9.446 4-9.446"></path>
</symbol>
<symbol id="Logo" viewBox="0 0 74 32">
<path fill="#002805" style="fill: var(--color3, #002805)" d="M20 32h-8c-6.628 0-12-5.372-12-12v-8c0-6.628 5.372-12 12-12h8c6.628 0 12 5.372 12 12v8c0 6.628-5.372 12-12 12z"></path>
<path fill="#f9b229" style="fill: var(--color4, #f9b229)" d="M16 24.64l-11.2-11.84 22.4-1.6-11.2 13.44z"></path>
<path fill="#013507" style="fill: var(--color5, #013507)" d="M46.060 22.4h-7.844v-11.203h2.242v8.961h5.602v2.242zM54.873 18.142c0 0.625-0.112 1.208-0.336 1.75-0.224 0.537-0.529 1.003-0.914 1.398-0.385 0.391-0.839 0.701-1.359 0.93-0.516 0.224-1.070 0.336-1.664 0.336-0.589 0-1.143-0.112-1.664-0.336-0.516-0.229-0.969-0.539-1.359-0.93-0.385-0.396-0.69-0.862-0.914-1.398-0.224-0.542-0.336-1.125-0.336-1.75 0-0.635 0.112-1.224 0.336-1.766s0.529-1.008 0.914-1.398c0.391-0.396 0.844-0.706 1.359-0.93 0.521-0.224 1.076-0.336 1.664-0.336 0.594 0 1.148 0.107 1.664 0.32 0.521 0.208 0.974 0.508 1.359 0.898 0.385 0.385 0.69 0.852 0.914 1.398 0.224 0.542 0.336 1.146 0.336 1.813zM52.724 18.142c0-0.344-0.057-0.654-0.172-0.93-0.109-0.281-0.26-0.521-0.453-0.719-0.193-0.203-0.419-0.357-0.68-0.461-0.255-0.109-0.529-0.164-0.82-0.164s-0.568 0.055-0.828 0.164c-0.255 0.104-0.479 0.258-0.672 0.461-0.188 0.198-0.336 0.438-0.445 0.719-0.109 0.276-0.164 0.586-0.164 0.93 0 0.323 0.055 0.622 0.164 0.898s0.258 0.516 0.445 0.719c0.193 0.203 0.417 0.365 0.672 0.484 0.26 0.115 0.536 0.172 0.828 0.172s0.565-0.055 0.82-0.164c0.26-0.109 0.487-0.263 0.68-0.461s0.344-0.438 0.453-0.719c0.115-0.281 0.172-0.591 0.172-0.93zM62.006 18.142c0-0.292-0.057-0.573-0.172-0.844-0.109-0.276-0.26-0.518-0.453-0.727-0.193-0.214-0.419-0.383-0.68-0.508-0.255-0.13-0.529-0.195-0.82-0.195s-0.568 0.049-0.828 0.148c-0.255 0.099-0.479 0.245-0.672 0.437-0.187 0.193-0.336 0.432-0.445 0.719-0.109 0.281-0.164 0.604-0.164 0.969 0 0.349 0.055 0.664 0.164 0.945 0.109 0.276 0.258 0.513 0.445 0.711 0.193 0.198 0.417 0.352 0.672 0.461 0.26 0.104 0.536 0.156 0.828 0.156s0.565-0.062 0.82-0.188c0.26-0.13 0.487-0.299 0.68-0.508 0.193-0.214 0.344-0.456 0.453-0.727 0.115-0.276 0.172-0.56 0.172-0.852zM64.154 21.345c0 0.588-0.112 1.141-0.336 1.656s-0.531 0.966-0.922 1.352c-0.385 0.385-0.839 0.69-1.359 0.914-0.516 0.224-1.068 0.336-1.656 0.336l-1.070-0.016v-2.133l1.055 0.016c0.333 0 0.617-0.044 0.852-0.133 0.234-0.083 0.432-0.201 0.594-0.352 0.161-0.146 0.289-0.315 0.383-0.508 0.099-0.193 0.177-0.396 0.234-0.609-0.083 0.135-0.203 0.247-0.359 0.336-0.156 0.083-0.331 0.151-0.523 0.203-0.187 0.057-0.385 0.096-0.594 0.117-0.203 0.021-0.393 0.031-0.57 0.031-0.589 0-1.143-0.102-1.664-0.305-0.516-0.203-0.969-0.492-1.359-0.867-0.385-0.38-0.69-0.844-0.914-1.391s-0.336-1.164-0.336-1.852c0-0.63 0.112-1.216 0.336-1.758s0.529-1.010 0.914-1.406c0.391-0.396 0.844-0.706 1.359-0.93 0.521-0.224 1.076-0.336 1.664-0.336 0.271 0 0.539 0.034 0.805 0.102s0.523 0.161 0.773 0.281c0.25 0.12 0.487 0.26 0.711 0.422 0.229 0.161 0.443 0.336 0.641 0.523l0.828-0.992h0.516v7.297zM73.873 18.142c0 0.625-0.112 1.208-0.336 1.75-0.224 0.537-0.529 1.003-0.914 1.398-0.385 0.391-0.838 0.701-1.359 0.93-0.516 0.224-1.070 0.336-1.664 0.336-0.589 0-1.143-0.112-1.664-0.336-0.516-0.229-0.969-0.539-1.359-0.93-0.385-0.396-0.69-0.862-0.914-1.398-0.224-0.542-0.336-1.125-0.336-1.75 0-0.635 0.112-1.224 0.336-1.766s0.529-1.008 0.914-1.398c0.39-0.396 0.844-0.706 1.359-0.93 0.521-0.224 1.075-0.336 1.664-0.336 0.594 0 1.148 0.107 1.664 0.32 0.521 0.208 0.974 0.508 1.359 0.898 0.385 0.385 0.69 0.852 0.914 1.398 0.224 0.542 0.336 1.146 0.336 1.813zM71.724 18.142c0-0.344-0.057-0.654-0.172-0.93-0.109-0.281-0.26-0.521-0.453-0.719-0.193-0.203-0.419-0.357-0.68-0.461-0.255-0.109-0.529-0.164-0.82-0.164s-0.568 0.055-0.828 0.164c-0.255 0.104-0.479 0.258-0.672 0.461-0.188 0.198-0.336 0.438-0.445 0.719-0.109 0.276-0.164 0.586-0.164 0.93 0 0.323 0.055 0.622 0.164 0.898s0.258 0.516 0.445 0.719c0.193 0.203 0.417 0.365 0.672 0.484 0.26 0.115 0.536 0.172 0.828 0.172s0.565-0.055 0.82-0.164c0.26-0.109 0.487-0.263 0.68-0.461s0.344-0.438 0.453-0.719c0.115-0.281 0.172-0.591 0.172-0.93z"></path>
</symbol>
<symbol id="logo-m" viewBox="0 0 32 32">
<path fill="#002805" style="fill: var(--color3, #002805)" d="M20 32h-8c-6.628 0-12-5.372-12-12v-8c0-6.628 5.372-12 12-12h8c6.628 0 12 5.372 12 12v8c0 6.628-5.372 12-12 12z"></path>
<path fill="#f9b229" style="fill: var(--color4, #f9b229)" d="M16 24.64l-11.2-11.84 22.4-1.6-11.2 13.44z"></path>
</symbol>
<symbol id="swiper-icon-right" viewBox="0 0 32 32">
<path fill="none" stroke="#00600c" style="stroke: var(--color1, #00600c)" stroke-linejoin="miter" stroke-linecap="butt" stroke-miterlimit="4" stroke-width="1.3333" d="M0.667 16c0-8.468 6.865-15.333 15.333-15.333s15.333 6.865 15.333 15.333c0 8.468-6.865 15.333-15.333 15.333s-15.333-6.865-15.333-15.333z"></path>
<path fill="none" stroke="#00600c" style="stroke: var(--color1, #00600c)" stroke-linejoin="round" stroke-linecap="round" stroke-miterlimit="4" stroke-width="1.3333" d="M14 10.667l5.333 5.333-5.333 5.333"></path>
</symbol>
<symbol id="swiper-icon-left" viewBox="0 0 32 32">
<path fill="none" stroke="#00600c" style="stroke: var(--color1, #00600c)" stroke-linejoin="miter" stroke-linecap="butt" stroke-miterlimit="4" stroke-width="1.3333" d="M31.333 16c0-8.468-6.865-15.333-15.333-15.333s-15.333 6.865-15.333 15.333c0 8.468 6.865 15.333 15.333 15.333s15.333-6.865 15.333-15.333z"></path>
<path fill="none" stroke="#00600c" style="stroke: var(--color1, #00600c)" stroke-linejoin="round" stroke-linecap="round" stroke-miterlimit="4" stroke-width="1.3333" d="M18 10.667l-5.333 5.333 5.333 5.333"></path>
</symbol>
<symbol id="bg_menu" viewBox="0 0 44 32">
<path fill="#033d0a" style="fill: var(--color6, #033d0a)" d="M0 28.3c0-1.884 1.527-3.411 3.411-3.411h37.623c1.884 0 3.411 1.527 3.411 3.411s-1.527 3.411-3.411 3.411h-37.623c-1.884 0-3.411-1.527-3.411-3.411z"></path>
<path fill="#033d0a" style="fill: var(--color6, #033d0a)" d="M3.411 0h37.623c1.884 0 3.411 1.527 3.411 3.411v0c0 1.884-1.527 3.411-3.411 3.411h-37.623c-1.884 0-3.411-1.527-3.411-3.411v-0c0-1.884 1.527-3.411 3.411-3.411z"></path>
<path fill="#033d0a" style="fill: var(--color6, #033d0a)" d="M0 15.855c0-1.884 1.527-3.411 3.411-3.411h37.623c1.884 0 3.411 1.527 3.411 3.411s-1.527 3.411-3.411 3.411h-37.623c-1.884 0-3.411-1.527-3.411-3.411z"></path>
</symbol>
</defs>
</svg>
